# File produced by Open Asset Import Library (http://www.assimp.sf.net)
# (assimp v3.1.256107357)

mtllib %E6%97%A0%E6%A0%87%E9%A2%98.mtl

# vertex positions
v 0.000000 -0.106429 0.150232
v -0.104780 -0.106429 0.101783
v -0.150304 -0.106429 0.000000
v 0.000000 -0.106429 0.000000
v -0.144754 -0.035694 0.144066
v -0.135118 -0.063688 0.133540
v 0.000000 -0.063443 0.190344
v 0.000000 -0.035510 0.204533
v -0.135118 -0.063688 -0.133540
v -0.190344 -0.063436 0.000000
v -0.204533 -0.035470 0.000000
v -0.144754 -0.035694 -0.144066
v 0.135118 -0.063688 0.133540
v 0.144754 -0.035694 0.144066
v 0.000000 0.000009 0.204533
v -0.144469 0.000001 0.144474
v -0.204533 -0.000012 0.000000
v 0.104780 -0.106429 0.101783
v 0.150304 -0.106429 0.000000
v -0.113469 -0.106429 0.110363
v 0.000000 -0.106429 0.162830
v 0.000000 -0.078366 0.181572
v -0.128538 -0.078570 0.126451
v 0.190344 -0.063436 0.000000
v 0.135118 -0.063688 -0.133540
v 0.144754 -0.035694 -0.144066
v 0.204533 -0.035470 0.000000
v -0.181581 -0.078353 0.000000
v -0.162830 -0.106429 0.000000
v 0.144469 0.000001 0.144474
v 0.204533 -0.000012 0.000000
v -0.104780 -0.106429 -0.101782
v 0.000000 -0.106429 -0.150232
v 0.000000 -0.063443 -0.190344
v 0.000000 -0.035510 -0.204533
v -0.128538 -0.078570 -0.126451
v -0.113469 -0.106429 -0.110363
v 0.000000 -0.106429 -0.162830
v 0.000000 -0.078366 -0.181572
v -0.144469 0.000001 -0.144474
v 0.000000 0.000009 -0.204533
v 0.128538 -0.078570 0.126451
v 0.113469 -0.106429 0.110363
v 0.162830 -0.106429 0.000000
v 0.181581 -0.078353 0.000000
v 0.104780 -0.106429 -0.101782
v 0.113469 -0.106429 -0.110363
v 0.128538 -0.078570 -0.126451
v 0.144469 0.000001 -0.144474
v 0.000000 -0.076086 0.173636
v 0.000000 -0.065203 0.180319
v -0.128004 -0.065450 0.126467
v -0.122968 -0.076297 0.120927
v -0.180356 -0.065202 0.000000
v -0.173652 -0.076078 0.000000
v 0.122968 -0.076297 0.120927
v 0.128004 -0.065450 0.126467
v 0.173652 -0.076078 0.000000
v 0.180356 -0.065202 0.000000
v -0.122968 -0.076298 -0.120927
v -0.128004 -0.065450 -0.126467
v 0.000000 -0.065203 -0.180319
v 0.000000 -0.076086 -0.173636
v 0.128004 -0.065450 -0.126467
v 0.122968 -0.076298 -0.120927

# UV coordinates
vt 0.362069 0.826014
vt 0.362069 0.720912
vt 0.428785 0.644400
vt 0.486218 0.768608
vt 0.019815 0.439085
vt 0.136053 0.408601
vt 0.187221 0.527748
vt 0.073719 0.578067
vt 0.136053 0.169713
vt 0.115867 0.289157
vt 0.000247 0.289157
vt 0.019815 0.139229
vt 0.332959 0.169713
vt 0.216721 0.139229
vt 0.270625 0.000247
vt 0.384126 0.050566
vt 0.545176 0.427151
vt 0.544452 0.569979
vt 0.394081 0.570040
vt 0.394059 0.427594
vt 0.394114 0.285143
vt 0.544227 0.285143
vt 0.442145 0.894089
vt 0.543652 0.892817
vt 0.823281 0.852103
vt 0.856553 0.968875
vt 0.717399 0.999753
vt 0.712184 0.867809
vt 0.312773 0.289157
vt 0.332959 0.408601
vt 0.216721 0.439085
vt 0.197153 0.289157
vt 0.708526 0.750000
vt 0.816419 0.749999
vt 0.696063 0.000308
vt 0.696786 0.143135
vt 0.545670 0.142692
vt 0.545692 0.000247
vt 0.695838 0.285143
vt 0.545724 0.285143
vt 0.530291 0.643127
vt 0.610368 0.711202
vt 0.384126 0.527748
vt 0.270625 0.578067
vt 0.712184 0.632190
vt 0.823281 0.647897
vt 0.856553 0.531125
vt 0.717400 0.500247
vt 0.544452 0.000308
vt 0.545176 0.143135
vt 0.394059 0.142692
vt 0.394081 0.000247
vt 0.712184 0.132190
vt 0.823281 0.147897
vt 0.816419 0.249999
vt 0.708526 0.250000
vt 0.610368 0.816304
vt 0.823281 0.352103
vt 0.712184 0.367809
vt 0.856553 0.468875
vt 0.717399 0.499753
vt 0.696786 0.427152
vt 0.696063 0.569979
vt 0.545692 0.570040
vt 0.545670 0.427594
vt 0.073719 0.000247
vt 0.187220 0.050566
vt 0.939445 0.489158
vt 0.894015 0.498964
vt 0.874674 0.374013
vt 0.920804 0.368782
vt 0.867368 0.249606
vt 0.913817 0.249606
vt 0.920804 0.629640
vt 0.874674 0.624409
vt 0.894015 0.499458
vt 0.939445 0.509264
vt 0.913817 0.748816
vt 0.867368 0.748816
vt 0.920804 0.130429
vt 0.874674 0.125198
vt 0.894015 0.000247
vt 0.939445 0.010053
vt 0.939445 0.988369
vt 0.894015 0.998175
vt 0.874674 0.873224
vt 0.920804 0.867993
vt 0.856553 0.031125
vt 0.717400 0.000247
vt 0.146369 0.405527
vt 0.196659 0.519460
vt 0.703771 0.997065
vt 0.699933 0.868184
vt 0.697281 0.750000
vt 0.127472 0.289157
vt 0.393565 0.058854
vt 0.343275 0.172787
vt 0.699934 0.131815
vt 0.703771 0.002935
vt 0.697281 0.250000
vt 0.324378 0.289157
vt 0.196659 0.058854
vt 0.146369 0.172787
vt 0.699934 0.631815
vt 0.703771 0.502935
vt 0.343275 0.405527
vt 0.393565 0.519460
vt 0.703771 0.497065
vt 0.699933 0.368184
vt 0.827607 0.749999
vt 0.833618 0.850229
vt 0.866874 0.959843
vt 0.833618 0.149771
vt 0.827607 0.249999
vt 0.866874 0.040157
vt 0.833618 0.649771
vt 0.866874 0.540157
vt 0.833618 0.350229
vt 0.866874 0.459843

# vertex normals
vn 0.000000 -1.000000 0.000000
vn -0.376515 -0.211109 0.902036
vn -0.348611 -0.428413 0.833626
vn -0.376696 -0.208398 0.902591
vn -0.837871 -0.421885 -0.346388
vn -0.904667 -0.202393 -0.374986
vn -0.905070 -0.200393 -0.375088
vn -0.837871 -0.421885 0.346388
vn -0.905070 -0.200393 0.375088
vn -0.904667 -0.202393 0.374986
vn 0.348611 -0.428413 0.833626
vn 0.376515 -0.211109 0.902036
vn 0.376696 -0.208398 0.902591
vn -0.384677 -0.003800 0.923044
vn -0.923498 0.001500 0.383599
vn -0.335794 -0.561491 0.756287
vn 0.837871 -0.421885 -0.346388
vn 0.905070 -0.200393 -0.375088
vn 0.904667 -0.202393 -0.374986
vn 0.837871 -0.421885 0.346388
vn 0.904667 -0.202393 0.374986
vn 0.905070 -0.200393 0.375088
vn -0.763030 -0.556122 0.329413
vn 0.384677 -0.003800 0.923044
vn 0.923498 0.001500 0.383599
vn 0.376515 -0.211109 -0.902036
vn 0.348611 -0.428413 -0.833626
vn 0.376696 -0.208398 -0.902591
vn -0.763030 -0.556122 -0.329413
vn -0.335794 -0.561491 -0.756287
vn -0.376696 -0.208398 -0.902591
vn -0.376515 -0.211109 -0.902036
vn -0.384677 -0.003800 -0.923044
vn -0.923498 0.001500 -0.383599
vn 0.763030 -0.556122 0.329413
vn 0.763030 -0.556122 -0.329413
vn 0.335794 -0.561491 -0.756287
vn 0.384677 -0.003800 -0.923044
vn 0.923498 0.001500 -0.383599
vn -0.348611 -0.428413 -0.833626
vn -0.333110 -0.519715 0.786723
vn -0.793022 -0.512514 0.329309
vn 0.333110 -0.519715 0.786723
vn 0.793022 -0.512514 0.329309
vn -0.333110 -0.519715 -0.786723
vn -0.793022 -0.512514 -0.329309
vn 0.333110 -0.519715 -0.786723
vn 0.793022 -0.512514 -0.329309
vn 0.335794 -0.561491 0.756287
vn -0.122596 -0.984967 0.121696
vn 0.000000 -0.984870 0.173295
vn 0.000000 0.961301 0.275500
vn -0.197605 0.960425 0.196305
vn -0.197609 0.960444 0.196209
vn -0.275712 0.961240 0.000000
vn -0.174105 -0.984727 0.000000
vn 0.122596 -0.984967 0.121696
vn 0.197609 0.960444 0.196209
vn 0.197605 0.960425 0.196305
vn 0.275712 0.961240 0.000000
vn 0.174105 -0.984727 0.000000
vn 0.000000 -0.984870 -0.173295
vn -0.122596 -0.984967 -0.121696
vn -0.197609 0.960444 -0.196209
vn -0.197605 0.960425 -0.196305
vn 0.000000 0.961301 -0.275500
vn 0.122596 -0.984967 -0.121696
vn 0.197605 0.960425 -0.196305
vn 0.197609 0.960444 -0.196209

# Mesh
g Retopo_Cylinder_mesh
usemtl None
f 4/4/1 1/1/1 2/2/1 3/3/1
f 7/7/3 8/8/4 5/5/2 6/6/3
f 12/12/7 9/9/5 10/10/5 11/11/6
f 6/6/8 5/5/9 11/11/10 10/10/8
f 13/13/11 14/14/12 8/15/13 7/16/11
f 8/18/4 15/19/14 16/20/14 5/17/2
f 5/17/9 16/20/15 17/21/15 11/22/10
f 19/24/1 18/23/1 1/1/1 4/4/1
f 21/26/16 22/27/16 23/28/16 20/25/16
f 27/32/19 24/29/17 25/30/17 26/31/18
f 24/29/20 27/32/21 14/14/22 13/13/20
f 20/25/23 23/28/23 28/33/23 29/34/23
f 14/36/12 30/37/24 15/38/24 8/35/13
f 27/39/21 31/40/25 30/37/25 14/36/22
f 33/42/1 4/4/1 3/3/1 32/41/1
f 26/31/26 25/30/27 34/43/27 35/44/28
f 36/45/29 37/46/29 29/34/29 28/33/29
f 39/48/30 38/47/30 37/46/30 36/45/30
f 41/52/33 35/49/31 12/50/32 40/51/33
f 40/51/34 12/50/7 11/22/6 17/21/34
f 44/55/35 45/56/35 42/53/35 43/54/35
f 46/57/1 19/24/1 4/4/1 33/42/1
f 45/56/36 44/55/36 47/58/36 48/59/36
f 48/59/37 47/58/37 38/60/37 39/61/37
f 49/65/38 26/62/26 35/63/28 41/64/38
f 31/40/39 27/39/19 26/62/18 49/65/39
f 35/66/31 34/67/40 9/9/40 12/12/32
f 50/68/41 51/69/41 52/70/41 53/71/41
f 53/71/42 52/70/42 54/72/42 55/73/42
f 56/74/43 57/75/43 51/76/43 50/77/43
f 58/78/44 59/79/44 57/75/44 56/74/44
f 62/82/45 63/83/45 60/80/45 61/81/45
f 61/81/46 60/80/46 55/73/46 54/72/46
f 64/86/47 65/87/47 63/84/47 62/85/47
f 59/79/48 58/78/48 65/87/48 64/86/48
f 43/54/49 42/53/49 22/89/49 21/88/49
f 51/91/51 7/7/51 6/6/50 52/90/50
f 22/27/52 50/92/52 53/93/53 23/28/54
f 23/28/54 53/93/53 55/94/55 28/33/55
f 52/90/50 6/6/50 10/10/56 54/95/56
f 57/97/57 13/13/57 7/16/51 51/96/51
f 42/53/58 56/98/59 50/99/52 22/89/52
f 45/56/60 58/100/60 56/98/59 42/53/58
f 59/101/61 24/29/61 13/13/57 57/97/57
f 34/67/62 62/102/62 61/103/63 9/9/63
f 63/105/66 39/48/66 36/45/64 60/104/65
f 60/104/65 36/45/64 28/33/55 55/94/55
f 9/9/63 61/103/63 54/95/56 10/10/56
f 25/30/67 64/106/67 62/107/62 34/43/62
f 65/109/68 48/59/69 39/61/66 63/108/66
f 58/100/60 45/56/60 48/59/69 65/109/68
f 24/29/61 59/101/61 64/106/67 25/30/67
f 2/111/1 20/25/1 29/34/1 3/110/1
f 1/112/1 21/26/1 20/25/1 2/111/1
f 19/114/1 44/55/1 43/54/1 18/113/1
f 18/113/1 43/54/1 21/88/1 1/115/1
f 37/46/1 32/116/1 3/110/1 29/34/1
f 38/47/1 33/117/1 32/116/1 37/46/1
f 44/55/1 19/114/1 46/118/1 47/58/1
f 47/58/1 46/118/1 33/119/1 38/60/1
