# File produced by Open Asset Import Library (http://www.assimp.sf.net)
# (assimp v3.1.256107357)

mtllib %E6%97%A0%E6%A0%87%E9%A2%98.mtl

# vertex positions
v -0.494552 1.220601 0.611241
v -0.494552 1.220601 1.833348
v -0.370575 1.220601 1.833348
v -0.370575 1.220601 0.611241
v -0.494552 -0.001507 0.611241
v -0.370575 -0.001507 0.611241
v -0.494552 -0.001507 1.833348
v -0.370575 -0.001507 1.833348

# UV coordinates
vt 0.333333 0.000000
vt 0.666667 0.000000
vt 0.666667 0.333333
vt 0.333333 0.333333
vt 1.000000 0.333333
vt 1.000000 0.000000
vt 0.666667 0.666667
vt 0.333333 0.666667
vt 0.333333 1.000000
vt 0.000000 1.000000
vt 0.000000 0.666667
vt 0.000000 0.333333
vt 0.000000 0.000000

# vertex normals
vn 0.000000 1.000000 0.000000
vn 0.000000 0.000000 -1.000000
vn 0.000000 -1.000000 0.000000
vn 0.000000 0.000000 1.000000
vn -1.000000 -0.000000 -0.000000
vn 1.000000 0.000000 0.000000

# Mesh
g Cube
usemtl None
f 3/3/1 4/4/1 1/1/1 2/2/1
f 4/2/2 6/6/2 5/5/2 1/3/2
f 6/8/3 8/4/3 7/3/3 5/7/3
f 8/10/4 3/11/4 2/8/4 7/9/4
f 2/12/5 1/13/5 5/1/5 7/4/5
f 4/11/6 3/12/6 8/4/6 6/8/6
